<svg width="1000" height="1000" viewBox="0 0 1000 1000" xmlns="http://www.w3.org/2000/svg"><defs/><path fill="#ffffff" transform="matrix(1.5414949965312763 0 0 1.5414949965312763 14.182262067351273 -53.77045315555575)" d="M 351.26011341318 195.89014892302 L 348.36011341318 195.89014892302 C 348.86011341318 195.99014892302 349.26011341318 196.09014892302 349.76011341318 196.09014892302 C 350.26011341318 196.09014892302 350.76011341318 195.99014892302 351.26011341318 195.89014892302 Z"/><path fill="#ffffff" transform="matrix(1.5414949965312763 0 0 1.5414949965312763 14.182262067351273 -53.77045315555575)" d="M 461.26011341318 195.89014892302 L 387.76011341318 195.89014892302 C 386.56011341318 200.19014892302 384.96011341318 204.49014892302 382.96011341318 208.79014892302 C 382.66011341318 209.29014892302 382.46011341318 209.89014892302 382.16011341318 210.39014892302 L 452.56011341318 210.39014892302 L 452.56011341318 364.59014892302 L 351.66011341318 364.59014892302 C 350.06011341318 357.79014892302 345.46011341318 351.79014892302 338.66011341318 348.59014892302 C 335.46011341318 347.09014892302 332.16011341318 346.39014892302 328.86011341318 346.29014892302 C 328.56011341318 339.19014892302 324.46011341318 332.49014892302 317.56011341318 329.19014892302 C 315.86011341318 328.39014892302 314.06011341318 327.89014892302 312.36011341318 327.59014892302 C 313.26011341318 318.59014892302 309.96011341318 309.59014892302 303.26011341318 303.49014892302 L 322.56011341318 254.49014892302 L 326.66011341318 256.39014892302 C 329.56011341318 255.69014892302 332.66011341318 254.39014892302 335.96011341318 252.59014892302 C 347.16011341318 268.49014892302 357.56011341318 291.29014892302 357.56011341318 291.29014892302 C 357.56011341318 291.29014892302 371.96011341318 263.19014892302 369.16011341318 253.79014892302 C 367.46011341318 247.89014892302 364.26011341318 239.69014892302 360.06011341318 231.39014892302 C 365.86011341318 224.19014892302 371.36011341318 215.59014892302 376.06011341318 205.49014892302 C 392.76011341318 170.09014892302 377.36011341318 132.19014892302 377.36011341318 132.19014892302 C 377.36011341318 132.19014892302 338.36011341318 144.39014892302 321.56011341318 179.79014892302 C 316.76011341318 189.89014892302 313.56011341318 199.69014892302 311.76011341318 208.69014892302 C 302.76011341318 210.69014892302 294.26011341318 213.49014892302 288.66011341318 215.89014892302 C 279.66011341318 219.79014892302 267.06011341318 248.69014892302 267.06011341318 248.69014892302 C 267.06011341318 248.69014892302 291.26011341318 242.19014892302 310.66011341318 240.69014892302 C 311.36011341318 244.39014892302 312.36011341318 247.59014892302 313.66011341318 250.29014892302 L 317.76011341318 252.19014892302 L 292.76011341318 297.19014892302 C 281.86011341318 293.59014892302 269.96011341318 296.79014892302 262.36011341318 304.99014892302 C 260.56011341318 302.99014892302 258.46011341318 301.19014892302 255.86011341318 299.99014892302 C 249.36011341318 296.89014892302 242.06011341318 297.69014892302 236.56011341318 301.39014892302 C 234.86011341318 299.79014892302 232.86011341318 298.49014892302 230.66011341318 297.49014892302 C 218.76011341318 291.89014892302 204.56011341318 296.99014892302 198.96011341318 308.89014892302 C 198.46011341318 309.89014892302 198.06011341318 310.89014892302 197.76011341318 311.99014892302 C 190.76011341318 310.19014892302 183.56011341318 311.59014892302 177.86011341318 315.59014892302 L 177.86011341318 210.39014892302 L 283.16011341318 210.39014892302 C 284.16011341318 209.69014892302 285.06011341318 209.29014892302 285.86011341318 208.89014892302 C 291.26011341318 206.59014892302 298.36011341318 204.19014892302 305.56011341318 202.39014892302 C 306.06011341318 200.19014892302 306.76011341318 197.99014892302 307.36011341318 195.89014892302 L 169.06011341318 195.89014892302 C 165.86011341318 195.89014892302 163.26011341318 198.49014892302 163.26011341318 201.69014892302 L 163.26011341318 392.59014892302 C 163.26011341318 395.79014892302 165.86011341318 398.39014892302 169.06011341318 398.39014892302 L 295.96011341318 398.39014892302 L 295.96011341318 428.19014892302 L 246.16011341318 428.19014892302 C 243.66011341318 428.19014892302 241.66011341318 430.19014892302 241.66011341318 432.69014892302 L 241.66011341318 438.29014892302 C 241.66011341318 440.79014892302 243.66011341318 442.79014892302 246.16011341318 442.79014892302 L 384.16011341318 442.79014892302 C 386.66011341318 442.79014892302 388.66011341318 440.79014892302 388.66011341318 438.29014892302 L 388.66011341318 432.69014892302 C 388.66011341318 430.19014892302 386.66011341318 428.19014892302 384.16011341318 428.19014892302 L 334.36011341318 428.19014892302 L 334.36011341318 398.39014892302 L 461.26011341318 398.39014892302 C 464.46011341318 398.39014892302 467.06011341318 395.79014892302 467.06011341318 392.59014892302 L 467.06011341318 201.69014892302 C 467.06011341318 198.49014892302 464.46011341318 195.89014892302 461.26011341318 195.89014892302 Z M 338.06011341318 185.19014892302 C 341.16011341318 178.69014892302 348.86011341318 175.89014892302 355.36011341318 178.99014892302 C 361.86011341318 182.09014892302 364.66011341318 189.79014892302 361.56011341318 196.29014892302 C 358.46011341318 202.79014892302 350.76011341318 205.59014892302 344.26011341318 202.49014892302 C 337.76011341318 199.39014892302 334.96011341318 191.69014892302 338.06011341318 185.19014892302 Z M 409.76011341318 386.29014892302 C 407.26011341318 386.29014892302 405.26011341318 384.29014892302 405.26011341318 381.79014892302 C 405.26011341318 379.29014892302 407.26011341318 377.29014892302 409.76011341318 377.29014892302 C 412.26011341318 377.29014892302 414.26011341318 379.29014892302 414.26011341318 381.79014892302 C 414.26011341318 384.29014892302 412.26011341318 386.29014892302 409.76011341318 386.29014892302 Z M 424.16011341318 386.29014892302 C 421.66011341318 386.29014892302 419.66011341318 384.29014892302 419.66011341318 381.79014892302 C 419.66011341318 379.29014892302 421.66011341318 377.29014892302 424.16011341318 377.29014892302 C 426.66011341318 377.29014892302 428.66011341318 379.29014892302 428.66011341318 381.79014892302 C 428.66011341318 384.29014892302 426.66011341318 386.29014892302 424.16011341318 386.29014892302 Z M 438.46011341318 386.29014892302 C 435.96011341318 386.29014892302 433.96011341318 384.29014892302 433.96011341318 381.79014892302 C 433.96011341318 379.29014892302 435.96011341318 377.29014892302 438.46011341318 377.29014892302 C 440.96011341318 377.29014892302 442.96011341318 379.29014892302 442.96011341318 381.79014892302 C 442.96011341318 384.29014892302 440.96011341318 386.29014892302 438.46011341318 386.29014892302 Z"/><path id="text" fill="#ffffff" transform="matrix(1.6860644365654383 0 0 1.6860644365654383 -1.9423462309233848 799.3)" d="M 166.75657142857 -27.52997485714 L 155.71657142857 -27.52997485714 L 155.71657142857 -37.12997485714 L 188.35657142857 -37.12997485714 L 188.35657142857 -27.52997485714 L 177.31657142857 -27.52997485714 L 177.31657142857 30.07002514286 L 166.75657142857 30.07002514286 L 166.75657142857 -27.52997485714 Z M 198.24457142857 -37.12997485714 L 213.89257142857 -37.12997485714 C 219.33257142857 -37.12997485714 223.30057142857 -35.86597485714 225.79657142857 -33.33797485714 C 228.29257142857 -30.80997485714 229.54057142857 -26.92197485714 229.54057142857 -21.67397485714 L 229.54057142857 -17.54597485714 C 229.54057142857 -10.56997485714 227.23657142857 -6.15397485714 222.62857142857 -4.29797485714 L 222.62857142857 -4.10597485714 C 225.18857142857 -3.33797485714 226.99657142857 -1.76997485714 228.05257142857 0.59802514286 C 229.10857142857 2.96602514286 229.63657142857 6.13402514286 229.63657142857 10.10202514286 L 229.63657142857 21.91002514286 C 229.63657142857 23.83002514286 229.70057142857 25.38202514286 229.82857142857 26.56602514286 C 229.95657142857 27.75002514286 230.27657142857 28.91802514286 230.78857142857 30.07002514286 L 220.03657142857 30.07002514286 C 219.65257142857 28.98202514286 219.39657142857 27.95802514286 219.26857142857 26.99802514286 C 219.14057142857 26.03802514286 219.07657142857 24.31002514286 219.07657142857 21.81402514286 L 219.07657142857 9.52602514286 C 219.07657142857 6.45402514286 218.58057142857 4.31002514286 217.58857142857 3.09402514286 C 216.59657142857 1.87802514286 214.88457142857 1.27002514286 212.45257142857 1.27002514286 L 208.80457142857 1.27002514286 L 208.80457142857 30.07002514286 L 198.24457142857 30.07002514286 L 198.24457142857 -37.12997485714 Z M 212.64457142857 -8.32997485714 C 214.75657142857 -8.32997485714 216.34057142857 -8.87397485714 217.39657142857 -9.96197485714 C 218.45257142857 -11.04997485714 218.98057142857 -12.87397485714 218.98057142857 -15.43397485714 L 218.98057142857 -20.61797485714 C 218.98057142857 -23.04997485714 218.54857142857 -24.80997485714 217.68457142857 -25.89797485714 C 216.82057142857 -26.98597485714 215.46057142857 -27.52997485714 213.60457142857 -27.52997485714 L 208.80457142857 -27.52997485714 L 208.80457142857 -8.32997485714 L 212.64457142857 -8.32997485714 Z M 241.73257142857 -37.12997485714 L 252.29257142857 -37.12997485714 L 252.29257142857 30.07002514286 L 241.73257142857 30.07002514286 L 241.73257142857 -37.12997485714 Z M 264.96457142857 -37.12997485714 L 280.51657142857 -37.12997485714 C 285.76457142857 -37.12997485714 289.70057142857 -35.72197485714 292.32457142857 -32.90597485714 C 294.94857142857 -30.08997485714 296.26057142857 -25.96197485714 296.26057142857 -20.52197485714 L 296.26057142857 -13.89797485714 C 296.26057142857 -8.45797485714 294.94857142857 -4.32997485714 292.32457142857 -1.51397485714 C 289.70057142857 1.30202514286 285.76457142857 2.71002514286 280.51657142857 2.71002514286 L 275.52457142857 2.71002514286 L 275.52457142857 30.07002514286 L 264.96457142857 30.07002514286 L 264.96457142857 -37.12997485714 Z M 280.51657142857 -6.88997485714 C 282.24457142857 -6.88997485714 283.54057142857 -7.36997485714 284.40457142857 -8.32997485714 C 285.26857142857 -9.28997485714 285.70057142857 -10.92197485714 285.70057142857 -13.22597485714 L 285.70057142857 -21.19397485714 C 285.70057142857 -23.49797485714 285.26857142857 -25.12997485714 284.40457142857 -26.08997485714 C 283.54057142857 -27.04997485714 282.24457142857 -27.52997485714 280.51657142857 -27.52997485714 L 275.52457142857 -27.52997485714 L 275.52457142857 -6.88997485714 L 280.51657142857 -6.88997485714 Z M 306.82057142857 -37.12997485714 L 334.75657142857 -37.12997485714 L 334.75657142857 -27.52997485714 L 317.38057142857 -27.52997485714 L 317.38057142857 -8.80997485714 L 331.01257142857 -8.80997485714 L 331.01257142857 0.79002514286 L 317.38057142857 0.79002514286 L 317.38057142857 30.07002514286 L 306.82057142857 30.07002514286 L 306.82057142857 -37.12997485714 Z M 344.64457142857 -37.12997485714 L 355.20457142857 -37.12997485714 L 355.20457142857 20.47002514286 L 372.58057142857 20.47002514286 L 372.58057142857 30.07002514286 L 344.64457142857 30.07002514286 L 344.64457142857 -37.12997485714 Z M 382.46857142857 -37.12997485714 L 393.02857142857 -37.12997485714 L 393.02857142857 30.07002514286 L 382.46857142857 30.07002514286 L 382.46857142857 -37.12997485714 Z M 415.01257142857 -4.29797485714 L 403.39657142857 -37.12997485714 L 414.53257142857 -37.12997485714 L 421.63657142857 -15.43397485714 L 421.82857142857 -15.43397485714 L 429.12457142857 -37.12997485714 L 439.10857142857 -37.12997485714 L 427.49257142857 -4.29797485714 L 439.68457142857 30.07002514286 L 428.54857142857 30.07002514286 L 420.86857142857 6.64602514286 L 420.67657142857 6.64602514286 L 412.80457142857 30.07002514286 L 402.82057142857 30.07002514286 L 415.01257142857 -4.29797485714 Z"/></svg>