<svg width="1000" height="1000" viewBox="0 0 1000 1000" xmlns="http://www.w3.org/2000/svg"><defs/><path fill="#ffffff" transform="matrix(0.6769787882742854 0 0 0.6769787882742854 31.688380870292605 107.09885890389671)" d="M 362.76414502041 488.77437494558 L 359.86414502041 488.77437494558 C 360.36414502041 488.87437494558 360.76414502041 488.97437494558 361.26414502041 488.97437494558 C 361.76414502041 488.97437494558 362.26414502041 488.87437494558 362.76414502041 488.77437494558 Z"/><path fill="#ffffff" transform="matrix(0.6769787882742854 0 0 0.6769787882742854 31.688380870292605 107.09885890389671)" d="M 472.76414502041 488.77437494558 L 399.26414502041 488.77437494558 C 398.06414502041 493.07437494558 396.46414502041 497.37437494558 394.46414502041 501.67437494558 C 394.16414502041 502.17437494558 393.96414502041 502.77437494558 393.66414502041 503.27437494558 L 464.06414502041 503.27437494558 L 464.06414502041 657.47437494558 L 363.16414502041 657.47437494558 C 361.56414502041 650.67437494558 356.96414502041 644.67437494558 350.16414502041 641.47437494558 C 346.96414502041 639.97437494558 343.66414502041 639.27437494558 340.36414502041 639.17437494558 C 340.06414502041 632.07437494558 335.96414502041 625.37437494558 329.06414502041 622.07437494558 C 327.36414502041 621.27437494558 325.56414502041 620.77437494558 323.86414502041 620.47437494558 C 324.76414502041 611.47437494558 321.46414502041 602.47437494558 314.76414502041 596.37437494558 L 334.06414502041 547.37437494558 L 338.16414502041 549.27437494558 C 341.06414502041 548.57437494558 344.16414502041 547.27437494558 347.46414502041 545.47437494558 C 358.66414502041 561.37437494558 369.06414502041 584.17437494558 369.06414502041 584.17437494558 C 369.06414502041 584.17437494558 383.46414502041 556.07437494558 380.66414502041 546.67437494558 C 378.96414502041 540.77437494558 375.76414502041 532.57437494558 371.56414502041 524.27437494558 C 377.36414502041 517.07437494558 382.86414502041 508.47437494558 387.56414502041 498.37437494558 C 404.26414502041 462.97437494558 388.86414502041 425.07437494558 388.86414502041 425.07437494558 C 388.86414502041 425.07437494558 349.86414502041 437.27437494558 333.06414502041 472.67437494558 C 328.26414502041 482.77437494558 325.06414502041 492.57437494558 323.26414502041 501.57437494558 C 314.26414502041 503.57437494558 305.76414502041 506.37437494558 300.16414502041 508.77437494558 C 291.16414502041 512.67437494558 278.56414502041 541.57437494558 278.56414502041 541.57437494558 C 278.56414502041 541.57437494558 302.76414502041 535.07437494558 322.16414502041 533.57437494558 C 322.86414502041 537.27437494558 323.86414502041 540.47437494558 325.16414502041 543.17437494558 L 329.26414502041 545.07437494558 L 304.26414502041 590.07437494558 C 293.36414502041 586.47437494558 281.46414502041 589.67437494558 273.86414502041 597.87437494558 C 272.06414502041 595.87437494558 269.96414502041 594.07437494558 267.36414502041 592.87437494558 C 260.86414502041 589.77437494558 253.56414502041 590.57437494558 248.06414502041 594.27437494558 C 246.36414502041 592.67437494558 244.36414502041 591.37437494558 242.16414502041 590.37437494558 C 230.26414502041 584.77437494558 216.06414502041 589.87437494558 210.46414502041 601.77437494558 C 209.96414502041 602.77437494558 209.56414502041 603.77437494558 209.26414502041 604.87437494558 C 202.26414502041 603.07437494558 195.06414502041 604.47437494558 189.36414502041 608.47437494558 L 189.36414502041 503.27437494558 L 294.66414502041 503.27437494558 C 295.66414502041 502.57437494558 296.56414502041 502.17437494558 297.36414502041 501.77437494558 C 302.76414502041 499.47437494558 309.86414502041 497.07437494558 317.06414502041 495.27437494558 C 317.56414502041 493.07437494558 318.26414502041 490.87437494558 318.86414502041 488.77437494558 L 180.56414502041 488.77437494558 C 177.36414502041 488.77437494558 174.76414502041 491.37437494558 174.76414502041 494.57437494558 L 174.76414502041 685.47437494558 C 174.76414502041 688.67437494558 177.36414502041 691.27437494558 180.56414502041 691.27437494558 L 307.46414502041 691.27437494558 L 307.46414502041 721.07437494558 L 257.66414502041 721.07437494558 C 255.16414502041 721.07437494558 253.16414502041 723.07437494558 253.16414502041 725.57437494558 L 253.16414502041 731.17437494558 C 253.16414502041 733.67437494558 255.16414502041 735.67437494558 257.66414502041 735.67437494558 L 395.66414502041 735.67437494558 C 398.16414502041 735.67437494558 400.16414502041 733.67437494558 400.16414502041 731.17437494558 L 400.16414502041 725.57437494558 C 400.16414502041 723.07437494558 398.16414502041 721.07437494558 395.66414502041 721.07437494558 L 345.86414502041 721.07437494558 L 345.86414502041 691.27437494558 L 472.76414502041 691.27437494558 C 475.96414502041 691.27437494558 478.56414502041 688.67437494558 478.56414502041 685.47437494558 L 478.56414502041 494.57437494558 C 478.56414502041 491.37437494558 475.96414502041 488.77437494558 472.76414502041 488.77437494558 Z M 349.56414502041 478.07437494558 C 352.66414502041 471.57437494558 360.36414502041 468.77437494558 366.86414502041 471.87437494558 C 373.36414502041 474.97437494558 376.16414502041 482.67437494558 373.06414502041 489.17437494558 C 369.96414502041 495.67437494558 362.26414502041 498.47437494558 355.76414502041 495.37437494558 C 349.26414502041 492.27437494558 346.46414502041 484.57437494558 349.56414502041 478.07437494558 Z M 421.26414502041 679.17437494558 C 418.76414502041 679.17437494558 416.76414502041 677.17437494558 416.76414502041 674.67437494558 C 416.76414502041 672.17437494558 418.76414502041 670.17437494558 421.26414502041 670.17437494558 C 423.76414502041 670.17437494558 425.76414502041 672.17437494558 425.76414502041 674.67437494558 C 425.76414502041 677.17437494558 423.76414502041 679.17437494558 421.26414502041 679.17437494558 Z M 435.66414502041 679.17437494558 C 433.16414502041 679.17437494558 431.16414502041 677.17437494558 431.16414502041 674.67437494558 C 431.16414502041 672.17437494558 433.16414502041 670.17437494558 435.66414502041 670.17437494558 C 438.16414502041 670.17437494558 440.16414502041 672.17437494558 440.16414502041 674.67437494558 C 440.16414502041 677.17437494558 438.16414502041 679.17437494558 435.66414502041 679.17437494558 Z M 449.96414502041 679.17437494558 C 447.46414502041 679.17437494558 445.46414502041 677.17437494558 445.46414502041 674.67437494558 C 445.46414502041 672.17437494558 447.46414502041 670.17437494558 449.96414502041 670.17437494558 C 452.46414502041 670.17437494558 454.46414502041 672.17437494558 454.46414502041 674.67437494558 C 454.46414502041 677.17437494558 452.46414502041 679.17437494558 449.96414502041 679.17437494558 Z"/><path id="text" fill="#ffffff" transform="matrix(1.5645060389731622 0 0 1.5645060389731622 352.028038167972 124.10220872849476)" d="M 45.3654098221 216.26611716898 L 34.3254098221 216.26611716898 L 34.3254098221 206.66611716898 L 66.9654098221 206.66611716898 L 66.9654098221 216.26611716898 L 55.9254098221 216.26611716898 L 55.9254098221 273.86611716898 L 45.3654098221 273.86611716898 L 45.3654098221 216.26611716898 Z M 76.8534098221 206.66611716898 L 92.5014098221 206.66611716898 C 97.9414098221 206.66611716898 101.9094098221 207.93011716898 104.4054098221 210.45811716898 C 106.9014098221 212.98611716898 108.1494098221 216.87411716898 108.1494098221 222.12211716898 L 108.1494098221 226.25011716898 C 108.1494098221 233.22611716898 105.8454098221 237.64211716898 101.2374098221 239.49811716898 L 101.2374098221 239.69011716898 C 103.7974098221 240.45811716898 105.6054098221 242.02611716898 106.6614098221 244.39411716898 C 107.7174098221 246.76211716898 108.2454098221 249.93011716898 108.2454098221 253.89811716898 L 108.2454098221 265.70611716898 C 108.2454098221 267.62611716898 108.3094098221 269.17811716898 108.4374098221 270.36211716898 C 108.5654098221 271.54611716898 108.8854098221 272.71411716898 109.3974098221 273.86611716898 L 98.6454098221 273.86611716898 C 98.2614098221 272.77811716898 98.0054098221 271.75411716898 97.8774098221 270.79411716898 C 97.7494098221 269.83411716898 97.6854098221 268.10611716898 97.6854098221 265.61011716898 L 97.6854098221 253.32211716898 C 97.6854098221 250.25011716898 97.1894098221 248.10611716898 96.1974098221 246.89011716898 C 95.2054098221 245.67411716898 93.4934098221 245.06611716898 91.0614098221 245.06611716898 L 87.4134098221 245.06611716898 L 87.4134098221 273.86611716898 L 76.8534098221 273.86611716898 L 76.8534098221 206.66611716898 Z M 91.2534098221 235.46611716898 C 93.3654098221 235.46611716898 94.9494098221 234.92211716898 96.0054098221 233.83411716898 C 97.0614098221 232.74611716898 97.5894098221 230.92211716898 97.5894098221 228.36211716898 L 97.5894098221 223.17811716898 C 97.5894098221 220.74611716898 97.1574098221 218.98611716898 96.2934098221 217.89811716898 C 95.4294098221 216.81011716898 94.0694098221 216.26611716898 92.2134098221 216.26611716898 L 87.4134098221 216.26611716898 L 87.4134098221 235.46611716898 L 91.2534098221 235.46611716898 Z M 120.3414098221 206.66611716898 L 130.9014098221 206.66611716898 L 130.9014098221 273.86611716898 L 120.3414098221 273.86611716898 L 120.3414098221 206.66611716898 Z M 143.5734098221 206.66611716898 L 159.1254098221 206.66611716898 C 164.3734098221 206.66611716898 168.3094098221 208.07411716898 170.9334098221 210.89011716898 C 173.5574098221 213.70611716898 174.8694098221 217.83411716898 174.8694098221 223.27411716898 L 174.8694098221 229.89811716898 C 174.8694098221 235.33811716898 173.5574098221 239.46611716898 170.9334098221 242.28211716898 C 168.3094098221 245.09811716898 164.3734098221 246.50611716898 159.1254098221 246.50611716898 L 154.1334098221 246.50611716898 L 154.1334098221 273.86611716898 L 143.5734098221 273.86611716898 L 143.5734098221 206.66611716898 Z M 159.1254098221 236.90611716898 C 160.8534098221 236.90611716898 162.1494098221 236.42611716898 163.0134098221 235.46611716898 C 163.8774098221 234.50611716898 164.3094098221 232.87411716898 164.3094098221 230.57011716898 L 164.3094098221 222.60211716898 C 164.3094098221 220.29811716898 163.8774098221 218.66611716898 163.0134098221 217.70611716898 C 162.1494098221 216.74611716898 160.8534098221 216.26611716898 159.1254098221 216.26611716898 L 154.1334098221 216.26611716898 L 154.1334098221 236.90611716898 L 159.1254098221 236.90611716898 Z M 185.4294098221 206.66611716898 L 213.3654098221 206.66611716898 L 213.3654098221 216.26611716898 L 195.9894098221 216.26611716898 L 195.9894098221 234.98611716898 L 209.6214098221 234.98611716898 L 209.6214098221 244.58611716898 L 195.9894098221 244.58611716898 L 195.9894098221 273.86611716898 L 185.4294098221 273.86611716898 L 185.4294098221 206.66611716898 Z M 223.2534098221 206.66611716898 L 233.8134098221 206.66611716898 L 233.8134098221 264.26611716898 L 251.1894098221 264.26611716898 L 251.1894098221 273.86611716898 L 223.2534098221 273.86611716898 L 223.2534098221 206.66611716898 Z M 261.0774098221 206.66611716898 L 271.6374098221 206.66611716898 L 271.6374098221 273.86611716898 L 261.0774098221 273.86611716898 L 261.0774098221 206.66611716898 Z M 293.6214098221 239.49811716898 L 282.0054098221 206.66611716898 L 293.1414098221 206.66611716898 L 300.2454098221 228.36211716898 L 300.4374098221 228.36211716898 L 307.7334098221 206.66611716898 L 317.7174098221 206.66611716898 L 306.1014098221 239.49811716898 L 318.2934098221 273.86611716898 L 307.1574098221 273.86611716898 L 299.4774098221 250.44211716898 L 299.2854098221 250.44211716898 L 291.4134098221 273.86611716898 L 281.4294098221 273.86611716898 L 293.6214098221 239.49811716898 Z"/></svg>